<svg width="30" height="30" viewBox="0 0 30 30" fill="none" xmlns="http://www.w3.org/2000/svg">
<rect width="30" height="30" rx="15" fill="#E3E3E3"/>
<path fill-rule="evenodd" clip-rule="evenodd" d="M15.25 5.60938C10.2021 5.60938 6.10938 9.70207 6.10938 14.75C6.10938 19.7979 10.2021 23.8906 15.25 23.8906C20.2979 23.8906 24.3906 19.7979 24.3906 14.75C24.3906 14.1387 24.328 13.5057 24.2131 12.9259C24.1479 12.5966 23.859 12.3594 23.5234 12.3594H15.25C14.8617 12.3594 14.5469 12.6742 14.5469 13.0625V16.4375C14.5469 16.8258 14.8617 17.1406 15.25 17.1406H18.8901C18.6267 17.5419 18.2991 17.897 17.922 18.1912C17.9166 18.1946 17.9111 18.1982 17.9058 18.2017L17.9045 18.2026L17.9055 18.2041C17.1706 18.7718 16.2498 19.1094 15.25 19.1094C12.8426 19.1094 10.8906 17.1574 10.8906 14.75C10.8906 12.3426 12.8426 10.3906 15.25 10.3906C16.3597 10.3906 17.3695 10.8084 18.1412 11.4949C18.4195 11.7424 18.8424 11.7301 19.1057 11.4668L21.4923 9.08022C21.6272 8.94532 21.7015 8.7614 21.6981 8.57066C21.6948 8.37992 21.614 8.19872 21.4745 8.06866C19.8441 6.54918 17.6593 5.60938 15.25 5.60938ZM18.2519 19.6711C17.3786 20.2066 16.3512 20.5156 15.25 20.5156C13.0862 20.5156 11.2007 19.3235 10.2145 17.5602L8.64221 18.7716C10.0002 20.9979 12.4516 22.4844 15.25 22.4844C16.9574 22.4844 18.5356 21.931 19.8151 20.9939L18.2519 19.6711ZM20.8801 20.0529C22.1848 18.6683 22.9844 16.8024 22.9844 14.75C22.9844 14.4242 22.9633 14.09 22.9237 13.7656H15.9531V15.7344H20.0185C20.2468 15.7344 20.4609 15.8452 20.5926 16.0317C20.7244 16.2181 20.7575 16.457 20.6813 16.6722C20.3996 17.4677 19.9486 18.1838 19.3714 18.7762L20.8801 20.0529ZM8.70586 10.6259C10.0759 8.45656 12.4948 7.01562 15.25 7.01562C17.0235 7.01562 18.6536 7.61715 19.959 8.62479L18.5534 10.0303C17.6193 9.37362 16.4812 8.98437 15.25 8.98437C13.1464 8.98437 11.3057 10.1112 10.2988 11.7941L8.70586 10.6259ZM8.05944 11.8957C7.70853 12.7788 7.51562 13.7419 7.51562 14.75C7.51562 15.7117 7.69119 16.6324 8.01201 17.4819L9.66952 16.2048C9.54868 15.7401 9.48437 15.2525 9.48437 14.75C9.48437 14.1815 9.56666 13.6323 9.71996 13.1135L8.05944 11.8957Z" fill="black"/>
</svg>
