<svg width="41" height="41" viewBox="0 0 41 41" fill="none" xmlns="http://www.w3.org/2000/svg">
    <path d="M14.3502 8.96875C9.59953 8.96875 5.55225 12.5209 5.55225 17.1342C5.55225 20.3168 7.0425 22.9962 9.01758 25.2157C10.9859 27.4276 13.5253 29.2843 15.821 30.8382L19.782 33.5194C20.2157 33.813 20.7846 33.813 21.2184 33.5194L25.1793 30.8382C27.475 29.2843 30.0144 27.4276 31.9827 25.2157C33.9578 22.9962 35.4481 20.3168 35.4481 17.1342C35.4481 12.5209 31.4008 8.96875 26.6502 8.96875C24.2013 8.96875 22.0465 10.117 20.5002 11.6027C18.9539 10.117 16.799 8.96875 14.3502 8.96875Z" fill="#FF4141"/>
</svg>