<svg width="41" height="41" viewBox="0 0 41 41" fill="none" xmlns="http://www.w3.org/2000/svg">
    <path fill-rule="evenodd" clip-rule="evenodd" d="M5.55208 17.1342C5.55208 12.5209 9.59936 8.96875 14.35 8.96875C16.7988 8.96875 18.9537 10.117 20.5 11.6027C22.0463 10.117 24.2011 8.96875 26.65 8.96875C31.4006 8.96875 35.4479 12.5209 35.4479 17.1342C35.4479 20.2944 34.1002 23.0735 32.2331 25.4226C30.3693 27.7677 27.9312 29.758 25.5968 31.3752C24.7051 31.9929 23.8031 32.5627 22.9775 32.9832C22.2024 33.3779 21.311 33.7396 20.5 33.7396C19.689 33.7396 18.7976 33.3779 18.0224 32.9832C17.1969 32.5627 16.2949 31.9929 15.4032 31.3752C13.0688 29.758 10.6307 27.7677 8.76685 25.4226C6.89975 23.0735 5.55208 20.2944 5.55208 17.1342ZM14.35 11.5313C10.7979 11.5313 8.11458 14.1435 8.11458 17.1342C8.11458 19.5319 9.13238 21.7642 10.7729 23.8282C12.4166 25.8963 14.6283 27.721 16.8625 29.2688C17.7079 29.8545 18.5042 30.3528 19.1853 30.6997C19.9168 31.0723 20.3405 31.1771 20.5 31.1771C20.6594 31.1771 21.0831 31.0723 21.8146 30.6997C22.4958 30.3528 23.2921 29.8545 24.1375 29.2688C26.3717 27.721 28.5833 25.8963 30.2271 23.8282C31.8676 21.7642 32.8854 19.5319 32.8854 17.1342C32.8854 14.1435 30.202 11.5313 26.65 11.5313C24.61 11.5313 22.7051 12.75 21.5157 14.2969C21.2732 14.6123 20.8979 14.7972 20.5 14.7972C20.1021 14.7972 19.7268 14.6123 19.4843 14.2969C18.2949 12.75 16.39 11.5313 14.35 11.5313Z" fill="black"/>
</svg>
