<svg width="43" height="43" viewBox="0 0 43 43" fill="none" xmlns="http://www.w3.org/2000/svg">
    <path fill-rule="evenodd" clip-rule="evenodd" d="M13.8853 13.4375C13.8853 9.2321 17.2945 5.82294 21.4999 5.82294C25.7053 5.82294 29.1145 9.2321 29.1145 13.4375C29.1145 17.6429 25.7053 21.0521 21.4999 21.0521C17.2945 21.0521 13.8853 17.6429 13.8853 13.4375ZM21.4999 8.51044C18.7788 8.51044 16.5728 10.7164 16.5728 13.4375C16.5728 16.1587 18.7788 18.3646 21.4999 18.3646C24.2211 18.3646 26.427 16.1587 26.427 13.4375C26.427 10.7164 24.2211 8.51044 21.4999 8.51044Z" fill="white" />
    <path fill-rule="evenodd" clip-rule="evenodd" d="M14.3333 26.4271C12.1069 26.4271 10.302 28.232 10.302 30.4584V32.5874C10.302 32.6198 10.3255 32.6474 10.3575 32.6526C17.7369 33.8574 25.2629 33.8574 32.6424 32.6526C32.6743 32.6474 32.6978 32.6198 32.6978 32.5874V30.4584C32.6978 28.232 30.893 26.4271 28.6666 26.4271H28.0559C28.0086 26.4271 27.9617 26.4346 27.9168 26.4492L26.3661 26.9556C23.2041 27.9881 19.7957 27.9881 16.6337 26.9556L15.083 26.4492C15.0381 26.4346 14.9912 26.4271 14.944 26.4271H14.3333ZM7.6145 30.4584C7.6145 26.7477 10.6226 23.7396 14.3333 23.7396H14.944C15.2745 23.7396 15.603 23.7919 15.9172 23.8945L17.4679 24.4008C20.0879 25.2563 22.912 25.2563 25.5319 24.4008L27.0826 23.8945C27.3968 23.7919 27.7253 23.7396 28.0559 23.7396H28.6666C32.3773 23.7396 35.3853 26.7477 35.3853 30.4584V32.5874C35.3853 33.9369 34.4073 35.0876 33.0754 35.305C25.4092 36.5567 17.5907 36.5567 9.92445 35.305C8.59254 35.0876 7.6145 33.9369 7.6145 32.5874V30.4584Z" fill="white" />
</svg>