<svg width="32" height="32" viewBox="0 0 46 46" fill="none" xmlns="http://www.w3.org/2000/svg">
    <path fill-rule="evenodd" clip-rule="evenodd" d="M27.5714 29.6043C22.4917 33.6727 15.0561 33.3525 10.3473 28.6437C5.29487 23.5913 5.29487 15.3997 10.3473 10.3473C15.3997 5.29488 23.5913 5.29488 28.6437 10.3473C33.3525 15.0561 33.6727 22.4917 29.6043 27.5714L39.4859 37.453C40.0473 38.0144 40.0473 38.9245 39.4859 39.4859C38.9246 40.0473 38.0144 40.0473 37.453 39.4859L27.5714 29.6043ZM12.3802 26.6107C8.45056 22.6811 8.45056 16.3099 12.3802 12.3802C16.3099 8.45057 22.6811 8.45057 26.6107 12.3802C30.5375 16.307 30.5404 22.6717 26.6194 26.6021C26.6165 26.6049 26.6136 26.6078 26.6107 26.6107C26.6078 26.6136 26.6049 26.6165 26.6021 26.6194C22.6717 30.5404 16.307 30.5375 12.3802 26.6107Z" fill="#007934" />
</svg>